<mxfile host="www.draw.io" modified="2019-11-22T07:02:50.951Z" agent="Mozilla/5.0 (Macintosh; Intel Mac OS X 10_15) AppleWebKit/605.1.15 (KHTML, like Gecko) Version/13.0.2 Safari/605.1.15" etag="wfjqlWnIPbhA3_sNd0pm" version="12.2.9" type="github" pages="3">
  <diagram id="Fh-FkXlsDdvQ9YG-0T8J" name="ad-shield健康检查">
    <mxGraphModel dx="932" dy="648" grid="1" gridSize="10" guides="1" tooltips="1" connect="1" arrows="1" fold="1" page="1" pageScale="1" pageWidth="827" pageHeight="1169" math="0" shadow="0">
      <root>
        <mxCell id="0"/>
        <mxCell id="1" parent="0"/>
        <mxCell id="jH8fylCY83q8PEKmx7wo-18" style="edgeStyle=orthogonalEdgeStyle;rounded=0;orthogonalLoop=1;jettySize=auto;html=1;entryX=0.5;entryY=0;entryDx=0;entryDy=0;" edge="1" parent="1" source="jH8fylCY83q8PEKmx7wo-16" target="jH8fylCY83q8PEKmx7wo-17">
          <mxGeometry relative="1" as="geometry"/>
        </mxCell>
        <mxCell id="jH8fylCY83q8PEKmx7wo-20" value="http请求" style="text;html=1;align=center;verticalAlign=middle;resizable=0;points=[];;labelBackgroundColor=#ffffff;" vertex="1" connectable="0" parent="jH8fylCY83q8PEKmx7wo-18">
          <mxGeometry x="-0.3" y="-1" relative="1" as="geometry">
            <mxPoint as="offset"/>
          </mxGeometry>
        </mxCell>
        <mxCell id="jH8fylCY83q8PEKmx7wo-16" value="发起健康检查" style="ellipse;whiteSpace=wrap;html=1;" vertex="1" parent="1">
          <mxGeometry x="210" y="100" width="110" height="60" as="geometry"/>
        </mxCell>
        <mxCell id="jH8fylCY83q8PEKmx7wo-23" style="edgeStyle=orthogonalEdgeStyle;rounded=0;orthogonalLoop=1;jettySize=auto;html=1;" edge="1" parent="1" source="jH8fylCY83q8PEKmx7wo-17" target="jH8fylCY83q8PEKmx7wo-22">
          <mxGeometry relative="1" as="geometry"/>
        </mxCell>
        <mxCell id="jH8fylCY83q8PEKmx7wo-25" value="不存在" style="text;html=1;align=center;verticalAlign=middle;resizable=0;points=[];;labelBackgroundColor=#ffffff;" vertex="1" connectable="0" parent="jH8fylCY83q8PEKmx7wo-23">
          <mxGeometry x="-0.253" relative="1" as="geometry">
            <mxPoint as="offset"/>
          </mxGeometry>
        </mxCell>
        <mxCell id="jH8fylCY83q8PEKmx7wo-26" style="edgeStyle=orthogonalEdgeStyle;rounded=0;orthogonalLoop=1;jettySize=auto;html=1;entryX=0.5;entryY=0;entryDx=0;entryDy=0;" edge="1" parent="1" source="jH8fylCY83q8PEKmx7wo-17" target="jH8fylCY83q8PEKmx7wo-21">
          <mxGeometry relative="1" as="geometry"/>
        </mxCell>
        <mxCell id="jH8fylCY83q8PEKmx7wo-17" value="检查es服务&lt;br&gt;主备索引是否存在" style="rhombus;whiteSpace=wrap;html=1;" vertex="1" parent="1">
          <mxGeometry x="200" y="230" width="130" height="70" as="geometry"/>
        </mxCell>
        <mxCell id="jH8fylCY83q8PEKmx7wo-33" style="edgeStyle=orthogonalEdgeStyle;rounded=0;orthogonalLoop=1;jettySize=auto;html=1;entryX=0.5;entryY=0;entryDx=0;entryDy=0;" edge="1" parent="1" source="jH8fylCY83q8PEKmx7wo-21" target="jH8fylCY83q8PEKmx7wo-28">
          <mxGeometry relative="1" as="geometry"/>
        </mxCell>
        <mxCell id="jH8fylCY83q8PEKmx7wo-21" value="按广告类型（ad_type）聚合es数据得到cntMap" style="rounded=1;whiteSpace=wrap;html=1;" vertex="1" parent="1">
          <mxGeometry x="205" y="330" width="120" height="60" as="geometry"/>
        </mxCell>
        <mxCell id="jH8fylCY83q8PEKmx7wo-27" style="edgeStyle=orthogonalEdgeStyle;rounded=0;orthogonalLoop=1;jettySize=auto;html=1;entryX=1;entryY=0.5;entryDx=0;entryDy=0;" edge="1" parent="1" source="jH8fylCY83q8PEKmx7wo-22" target="jH8fylCY83q8PEKmx7wo-21">
          <mxGeometry relative="1" as="geometry">
            <Array as="points">
              <mxPoint x="450" y="360"/>
            </Array>
          </mxGeometry>
        </mxCell>
        <mxCell id="jH8fylCY83q8PEKmx7wo-22" value="根据内存主备索引资源数据建立主备索引" style="rounded=1;whiteSpace=wrap;html=1;" vertex="1" parent="1">
          <mxGeometry x="390" y="235" width="120" height="60" as="geometry"/>
        </mxCell>
        <mxCell id="jH8fylCY83q8PEKmx7wo-31" style="edgeStyle=orthogonalEdgeStyle;rounded=0;orthogonalLoop=1;jettySize=auto;html=1;entryX=0.5;entryY=0;entryDx=0;entryDy=0;" edge="1" parent="1" source="jH8fylCY83q8PEKmx7wo-28" target="jH8fylCY83q8PEKmx7wo-30">
          <mxGeometry relative="1" as="geometry"/>
        </mxCell>
        <mxCell id="jH8fylCY83q8PEKmx7wo-32" value="否&lt;br&gt;返回&amp;nbsp;resultCode = 0&amp;nbsp;&lt;br&gt;和主备索引cntMap" style="text;html=1;align=center;verticalAlign=middle;resizable=0;points=[];;labelBackgroundColor=#ffffff;" vertex="1" connectable="0" parent="jH8fylCY83q8PEKmx7wo-31">
          <mxGeometry x="-0.32" y="3" relative="1" as="geometry">
            <mxPoint as="offset"/>
          </mxGeometry>
        </mxCell>
        <mxCell id="jH8fylCY83q8PEKmx7wo-34" style="edgeStyle=orthogonalEdgeStyle;rounded=0;orthogonalLoop=1;jettySize=auto;html=1;exitX=1;exitY=0.5;exitDx=0;exitDy=0;entryX=1;entryY=0.5;entryDx=0;entryDy=0;" edge="1" parent="1" source="jH8fylCY83q8PEKmx7wo-28" target="jH8fylCY83q8PEKmx7wo-30">
          <mxGeometry relative="1" as="geometry">
            <Array as="points">
              <mxPoint x="390" y="455"/>
              <mxPoint x="390" y="590"/>
            </Array>
          </mxGeometry>
        </mxCell>
        <mxCell id="jH8fylCY83q8PEKmx7wo-36" value="是&lt;br&gt;返回resultCode=501&lt;br&gt;&amp;nbsp;" style="text;html=1;align=center;verticalAlign=middle;resizable=0;points=[];;labelBackgroundColor=#ffffff;" vertex="1" connectable="0" parent="jH8fylCY83q8PEKmx7wo-34">
          <mxGeometry x="-0.113" y="2" relative="1" as="geometry">
            <mxPoint as="offset"/>
          </mxGeometry>
        </mxCell>
        <mxCell id="jH8fylCY83q8PEKmx7wo-28" value="判断cntMap是否为空" style="rhombus;whiteSpace=wrap;html=1;" vertex="1" parent="1">
          <mxGeometry x="210" y="420" width="110" height="70" as="geometry"/>
        </mxCell>
        <mxCell id="jH8fylCY83q8PEKmx7wo-30" value="结束" style="ellipse;whiteSpace=wrap;html=1;" vertex="1" parent="1">
          <mxGeometry x="205" y="560" width="120" height="60" as="geometry"/>
        </mxCell>
      </root>
    </mxGraphModel>
  </diagram>
  <diagram id="pWeyHFxG7Zy1q2EUkXWi" name="ad-merger健康检查">
    <mxGraphModel dx="932" dy="648" grid="1" gridSize="10" guides="1" tooltips="1" connect="1" arrows="1" fold="1" page="1" pageScale="1" pageWidth="827" pageHeight="1169" math="0" shadow="0">
      <root>
        <mxCell id="fAunHQatHXCc6FY_Nxqo-0"/>
        <mxCell id="fAunHQatHXCc6FY_Nxqo-1" parent="fAunHQatHXCc6FY_Nxqo-0"/>
      </root>
    </mxGraphModel>
  </diagram>
  <diagram id="0wPaPUyW0avSG8x-eAVy" name="ad-ssp健康检查">
    <mxGraphModel dx="932" dy="648" grid="1" gridSize="10" guides="1" tooltips="1" connect="1" arrows="1" fold="1" page="1" pageScale="1" pageWidth="827" pageHeight="1169" math="0" shadow="0">
      <root>
        <mxCell id="jCD15fpiU59etRgHQPGw-0"/>
        <mxCell id="jCD15fpiU59etRgHQPGw-1" parent="jCD15fpiU59etRgHQPGw-0"/>
      </root>
    </mxGraphModel>
  </diagram>
</mxfile>
